<svg width="200.000000" height="200.000000" viewBox="0 0 200 200" fill="none" xmlns="http://www.w3.org/2000/svg" xmlns:xlink="http://www.w3.org/1999/xlink">
	<desc>
			Created with Pixso.
	</desc>
	<defs>
		<clipPath id="clip24_2">
			<rect id="chip-ai-svgrepo-com" width="200.000000" height="200.000000" fill="white" fill-opacity="0"/>
		</clipPath>
	</defs>
	<g clip-path="url(#clip24_2)">
		<path id="path" d="M169.86 49.25L169.86 30.13L150.74 30.13L150.74 0L137.7 0L137.7 30.13L121.26 30.13L121.26 0L108.22 0L108.22 30.13L91.78 30.13L91.78 0L78.73 0L78.73 30.13L62.29 30.13L62.29 0L49.25 0L49.25 30.13L30.13 30.13L30.13 49.25L0 49.25L0 62.29L30.13 62.29L30.13 78.73L0 78.73L0 91.78L30.13 91.78L30.13 108.21L0 108.21L0 121.26L30.13 121.26L30.13 137.7L0 137.7L0 150.74L30.13 150.74L30.13 169.86L49.25 169.86L49.25 200L62.29 200L62.29 169.86L78.73 169.86L78.73 200L91.78 200L91.78 169.86L108.21 169.86L108.21 200L121.26 200L121.26 169.86L137.7 169.86L137.7 200L150.74 200L150.74 169.86L169.86 169.86L169.86 150.74L200 150.74L200 137.7L169.86 137.7L169.86 121.26L200 121.26L200 108.21L169.86 108.21L169.86 91.78L200 91.78L200 78.73L169.86 78.73L169.86 62.29L200 62.29L200 49.25L169.86 49.25ZM156.82 156.82L43.17 156.82L43.17 43.17L156.82 43.17L156.82 156.82Z" fill="#A6A8AD" fill-opacity="1.000000" fill-rule="nonzero"/>
		<path id="path" d="M146.78 89.66C146.78 80.71 141.24 72.9 133.33 69.64C132.8 59.12 124.07 50.72 113.42 50.72C108.25 50.72 103.54 52.7 100 55.93C96.45 52.7 91.74 50.72 86.57 50.72C75.92 50.72 67.19 59.12 66.66 69.64C58.75 72.9 53.21 80.71 53.21 89.66C53.21 93.4 54.16 96.92 55.84 99.99C54.13 103.14 53.21 106.68 53.21 110.33C53.21 119.37 58.78 127.12 66.66 130.36C67.2 140.87 75.92 149.27 86.57 149.27C91.74 149.27 96.45 147.29 100 144.06C103.54 147.29 108.25 149.27 113.42 149.27C124.07 149.27 132.8 140.87 133.33 130.36C141.22 127.12 146.78 119.37 146.78 110.33C146.78 106.68 145.86 103.14 144.15 99.99C145.83 96.92 146.78 93.4 146.78 89.66ZM93.47 129.32C93.47 133.13 90.38 136.22 86.57 136.22C83.47 136.22 80.84 134.16 79.98 131.34C84.14 130.32 87.96 128.08 90.88 124.86L81.21 116.1C79.56 117.92 77.3 118.93 74.84 118.93C70.11 118.93 66.25 115.07 66.25 110.33C66.25 110.06 66.26 109.79 66.29 109.52C68.91 110.66 71.81 111.29 74.84 111.29L74.84 98.25C70.11 98.25 66.25 94.39 66.25 89.66C66.25 86.57 67.91 83.82 70.4 82.3C72.66 85.44 75.81 87.94 79.57 89.34L84.15 77.13C81.47 76.13 79.67 73.53 79.67 70.67C79.67 66.86 82.77 63.77 86.57 63.77C90.38 63.77 93.47 66.86 93.47 70.67L93.47 129.32ZM133.7 109.52C133.73 109.79 133.74 110.06 133.74 110.33C133.74 115.07 129.89 118.93 125.15 118.93C122.69 118.93 120.43 117.92 118.78 116.1L109.11 124.86C112.03 128.08 115.85 130.32 120.02 131.34C119.15 134.16 116.52 136.22 113.42 136.22C109.61 136.22 106.52 133.13 106.52 129.32L106.52 70.67C106.52 66.86 109.61 63.77 113.42 63.77C117.22 63.77 120.32 66.86 120.32 70.67C120.32 73.53 118.52 76.13 115.84 77.13L120.42 89.34C124.18 87.94 127.33 85.44 129.59 82.31C132.08 83.82 133.74 86.57 133.74 89.66C133.74 94.39 129.89 98.25 125.15 98.25L125.15 111.29C128.18 111.29 131.08 110.66 133.7 109.52Z" fill="#A6A8AD" fill-opacity="1.000000" fill-rule="nonzero"/>
	</g>
</svg>
