<svg width="30.000000" height="30.000122" viewBox="0 0 30 30.0001" fill="none" xmlns="http://www.w3.org/2000/svg" xmlns:xlink="http://www.w3.org/1999/xlink">
	<desc>
			Created with Pixso.
	</desc>
	<defs/>
	<path id="path" d="M15 30C6.72 30 0 23.27 0 15C0 6.72 6.72 0 15 0C23.27 0 30 6.72 30 15C30 23.27 23.27 30 15 30ZM15 2.41C8.06 2.41 2.41 8.06 2.41 15C2.41 21.93 8.06 27.58 15 27.58C21.93 27.58 27.58 21.93 27.58 15C27.58 8.06 21.93 2.41 15 2.41Z" fill="#323842" fill-opacity="1.000000" fill-rule="nonzero"/>
	<path id="path" d="M11.54 11.69C11.72 11.24 11.96 10.84 12.28 10.51C12.6 10.17 12.99 9.91 13.44 9.72C13.89 9.54 14.39 9.44 14.95 9.44C15.67 9.44 16.27 9.54 16.75 9.74C17.23 9.94 17.62 10.18 17.91 10.48C18.21 10.77 18.42 11.09 18.54 11.43C18.67 11.77 18.73 12.08 18.73 12.38C18.73 12.86 18.67 13.26 18.54 13.58C18.42 13.89 18.26 14.16 18.07 14.38C17.88 14.6 17.68 14.79 17.45 14.95C17.22 15.11 17.01 15.26 16.8 15.42C16.6 15.58 16.42 15.76 16.26 15.96C16.11 16.16 16.01 16.42 15.97 16.72L15.97 17.3L13.92 17.3L13.92 16.61C13.95 16.18 14.03 15.81 14.17 15.52C14.3 15.23 14.46 14.98 14.65 14.77C14.83 14.56 15.02 14.38 15.22 14.23C15.43 14.08 15.61 13.92 15.79 13.77C15.96 13.62 16.1 13.45 16.2 13.27C16.31 13.09 16.36 12.86 16.35 12.59C16.35 12.12 16.23 11.78 16 11.56C15.78 11.33 15.46 11.22 15.06 11.22C14.78 11.22 14.55 11.27 14.35 11.38C14.15 11.49 13.99 11.63 13.86 11.81C13.74 11.98 13.64 12.19 13.58 12.43C13.52 12.67 13.49 12.92 13.49 13.2L11.26 13.2C11.27 12.65 11.36 12.15 11.54 11.69ZM16.09 18.21L16.09 20.55L13.7 20.55L13.7 18.21L16.09 18.21Z" fill="#323842" fill-opacity="1.000000" fill-rule="nonzero"/>
</svg>
