<svg width="28.411133" height="29.250000" viewBox="0 0 28.4111 29.25" fill="none" xmlns="http://www.w3.org/2000/svg" xmlns:xlink="http://www.w3.org/1999/xlink">
	<desc>
			Created with Pixso.
	</desc>
	<defs/>
	<path id="Vector" d="M11.17 29.25L10.58 24.55C10.06 24.39 9.5 24.14 8.9 23.81C8.3 23.47 7.78 23.11 7.36 22.73L3.03 24.57L0 19.29L3.74 16.47C3.69 16.17 3.65 15.87 3.62 15.56C3.59 15.25 3.58 14.94 3.58 14.65C3.58 14.38 3.59 14.09 3.62 13.79C3.65 13.49 3.69 13.15 3.74 12.77L0 9.95L3.03 4.73L7.33 6.54C7.81 6.14 8.34 5.78 8.91 5.45C9.47 5.13 10.02 4.87 10.55 4.7L11.17 0L17.23 0L17.82 4.73C18.44 4.94 18.99 5.2 19.47 5.48C19.95 5.76 20.44 6.12 20.95 6.54L25.38 4.73L28.41 9.95L24.54 12.87C24.62 13.2 24.67 13.51 24.69 13.79C24.7 14.07 24.7 14.35 24.7 14.62C24.7 14.87 24.69 15.14 24.67 15.42C24.65 15.7 24.6 16.04 24.53 16.44L28.33 19.29L25.3 24.57L20.95 22.7C20.44 23.12 19.93 23.49 19.42 23.79C18.91 24.1 18.37 24.34 17.82 24.51L17.23 29.25L11.17 29.25ZM12.58 27.62L15.75 27.62L16.35 23.22C17.17 23 17.91 22.71 18.56 22.33C19.22 21.95 19.89 21.43 20.57 20.77L24.62 22.5L26.24 19.74L22.68 17.07C22.81 16.6 22.9 16.18 22.95 15.79C22.99 15.4 23.01 15.01 23.01 14.62C23.01 14.21 22.99 13.82 22.95 13.45C22.91 13.08 22.82 12.68 22.68 12.24L26.3 9.5L24.68 6.74L20.54 8.48C20.04 7.94 19.4 7.43 18.6 6.96C17.8 6.49 17.04 6.18 16.32 6.02L15.83 1.62L12.59 1.62L12.08 5.99C11.26 6.16 10.51 6.45 9.82 6.83C9.13 7.22 8.45 7.76 7.77 8.44L3.72 6.74L2.1 9.5L5.63 12.13C5.49 12.5 5.4 12.89 5.34 13.32C5.29 13.75 5.26 14.19 5.26 14.65C5.26 15.06 5.29 15.47 5.34 15.88C5.4 16.29 5.48 16.68 5.6 17.07L2.1 19.74L3.72 22.5L7.74 20.8C8.38 21.44 9.04 21.95 9.73 22.34C10.41 22.73 11.19 23.04 12.05 23.25L12.58 27.62ZM14.16 18.68C15.29 18.68 16.25 18.29 17.04 17.5C17.83 16.71 18.22 15.75 18.22 14.62C18.22 13.49 17.83 12.53 17.04 11.74C16.25 10.95 15.29 10.56 14.16 10.56C13.02 10.56 12.06 10.95 11.27 11.74C10.49 12.53 10.09 13.49 10.09 14.62C10.09 15.75 10.49 16.71 11.27 17.5C12.06 18.29 13.02 18.68 14.16 18.68Z" fill="#000000" fill-opacity="1.000000" fill-rule="nonzero"/>
</svg>
