<svg width="24.000000" height="24.000000" viewBox="0 0 24 24" fill="none" xmlns="http://www.w3.org/2000/svg" xmlns:xlink="http://www.w3.org/1999/xlink">
	<desc>
			Created with Pixso.
	</desc>
	<defs>
		<clipPath id="clip5_29">
			<rect id="instruction" width="24.000000" height="24.000000" fill="white" fill-opacity="0"/>
		</clipPath>
	</defs>
	<g clip-path="url(#clip5_29)">
		<path id="path" d="M9.62 6.45C9.47 5.81 8.94 5.38 8.29 5.38C7.64 5.38 7.1 5.81 6.96 6.43L4.51 14.98C4.45 15.2 4.6 15.52 4.9 15.52C5.08 15.51 5.26 15.4 5.31 15.21L6.19 12.14L10.33 12.14L11.18 15.21C11.24 15.43 11.47 15.57 11.69 15.5C11.91 15.44 12.04 15.21 11.98 14.98L9.62 6.45ZM6.43 11.3L7.77 6.64C7.84 6.33 8.08 6.22 8.29 6.22C8.49 6.22 8.74 6.33 8.81 6.66L10.1 11.3L6.43 11.3ZM17.41 14.25C17.41 14.48 17.23 14.67 17 14.67L14.08 14.67C13.85 14.67 13.66 14.48 13.66 14.25C13.66 14.02 13.85 13.83 14.08 13.83L17 13.83C17.23 13.83 17.41 14.02 17.41 14.25ZM19.08 6.64C19.08 6.88 18.89 7.07 18.66 7.07L14.08 7.07C13.85 7.07 13.66 6.88 13.66 6.64C13.66 6.41 13.85 6.22 14.08 6.22L18.66 6.22C18.89 6.22 19.08 6.41 19.08 6.64ZM19.08 2L4.91 2C3.3 2 2 3.32 2 4.95L2 15.94C2 17.57 3.3 18.9 4.91 18.9L7.92 18.9L11.16 21.67C11.4 21.89 11.7 22 12 22C12.29 22 12.58 21.89 12.81 21.68L16.14 18.9L19.08 18.9C20.69 18.9 22 17.57 22 15.94L22 4.95C22 3.32 20.69 2 19.08 2ZM21.16 15.94C21.16 17.11 20.23 18.05 19.08 18.05L15.99 18.05C15.89 18.05 15.79 18.09 15.72 18.15L12.27 21.04C12.11 21.18 11.88 21.18 11.71 21.03L8.34 18.15C8.26 18.09 8.17 18.05 8.07 18.05L4.91 18.05C3.76 18.05 2.83 17.11 2.83 15.94L2.83 4.95C2.83 3.79 3.76 2.84 4.91 2.84L19.08 2.84C20.23 2.84 21.16 3.79 21.16 4.95L21.16 15.94ZM19.08 11.71C19.08 11.95 18.89 12.14 18.66 12.14L14.08 12.14C13.85 12.14 13.66 11.95 13.66 11.71C13.66 11.48 13.85 11.29 14.08 11.29L18.66 11.29C18.89 11.29 19.08 11.48 19.08 11.71ZM19.08 9.18C19.08 9.41 18.89 9.6 18.66 9.6L14.08 9.6C13.85 9.6 13.66 9.41 13.66 9.18C13.66 8.95 13.85 8.76 14.08 8.76L18.66 8.76C18.89 8.76 19.08 8.95 19.08 9.18Z" fill="#72767C" fill-opacity="1.000000" fill-rule="nonzero"/>
	</g>
</svg>
