<svg width="165.759277" height="25.617188" viewBox="0 0 165.759 25.6172" fill="none" xmlns="http://www.w3.org/2000/svg" xmlns:xlink="http://www.w3.org/1999/xlink">
	<desc>
			Created with Pixso.
	</desc>
	<defs/>
	<path d="M20.49 1L25.34 1L25.34 24.27L20.49 24.27L20.49 1ZM124.81 10.61C122.83 10.61 121.46 11.92 121.45 14.17L121.45 24.27L116.61 24.27L116.61 1L121.31 1L121.31 9.89L121.52 9.89C122.31 7.84 124.08 6.59 126.73 6.59C130.37 6.59 132.78 9.07 132.77 13.15L132.77 24.27L127.93 24.27L127.93 14.02C127.94 11.87 126.78 10.61 124.81 10.61ZM161.15 6.82L164.44 6.82L164.44 10.45L161.15 10.45L161.15 18.9C161.15 20.25 161.83 20.61 162.79 20.61C163.25 20.61 163.75 20.5 164 20.45L164.75 24.05C164.27 24.21 163.38 24.46 162.13 24.51C158.62 24.65 156.29 22.96 156.32 19.54L156.32 10.45L153.93 10.45L153.93 6.82L156.32 6.82L156.32 2.64L161.15 2.64L161.15 6.82ZM90.39 24.27L85.55 24.27L85.55 6.82L90.25 6.82L90.25 9.86L90.43 9.86C91.07 7.7 92.67 6.57 94.62 6.57C95.11 6.57 95.71 6.64 96.14 6.74L96.14 11.03C95.69 10.89 94.77 10.77 94.1 10.77C91.96 10.77 90.39 12.25 90.39 14.39L90.39 24.27ZM17.39 17.87C17.15 21.89 14.24 24.61 9.59 24.61C4.21 24.61 1 20.92 1 15.61C1 10.26 4.27 6.59 9.57 6.59C14.12 6.59 17.17 9.24 17.39 13.27L12.82 13.27C12.55 11.53 11.42 10.36 9.64 10.36C7.39 10.36 5.92 12.25 5.92 15.54C5.92 18.89 7.39 20.78 9.64 20.78C11.3 20.78 12.53 19.74 12.82 17.87L17.39 17.87ZM45.67 15.61C45.67 20.99 42.39 24.61 37.09 24.61C31.79 24.61 28.5 20.99 28.5 15.61C28.5 10.2 31.79 6.59 37.09 6.59C42.39 6.59 45.67 10.2 45.67 15.61ZM82.29 19.27C81.61 22.51 78.7 24.61 74.38 24.61C69 24.61 65.72 21.15 65.72 15.62C65.72 10.24 69.05 6.59 74.19 6.59C78.8 6.59 82.39 9.52 82.39 15.45L82.39 16.78L70.5 16.78L70.5 16.79C70.5 19.39 72.04 21 74.46 21C76.07 21 77.32 20.3 77.82 18.97L82.29 19.27ZM113.5 17.87C113.27 21.89 110.35 24.61 105.7 24.61C100.33 24.61 97.11 20.92 97.11 15.61C97.11 10.26 100.38 6.59 105.68 6.59C110.23 6.59 113.29 9.24 113.5 13.27L108.93 13.27C108.66 11.53 107.53 10.36 105.76 10.36C103.51 10.36 102.03 12.25 102.03 15.54C102.03 18.89 103.5 20.78 105.76 20.78C107.41 20.78 108.64 19.74 108.93 17.87L113.5 17.87ZM146.66 21.85C145.81 23.47 144.15 24.6 141.56 24.6C138.23 24.6 135.77 22.85 135.77 19.39C135.77 15.5 138.87 14.34 142.33 14.02C145.36 13.72 146.55 13.57 146.55 12.45L146.55 12.39C146.55 10.95 145.61 10.12 143.96 10.12C142.23 10.12 141.19 10.97 140.86 12.14L136.38 11.77C137.05 8.59 139.8 6.59 143.98 6.59C147.87 6.59 151.4 8.34 151.4 12.5L151.4 24.27L146.8 24.27L146.8 21.85L146.66 21.85ZM59.4 6.82L64.53 6.82L58.43 24.27L52.97 24.27L46.87 6.82L51.98 6.82L55.61 19.3L55.79 19.3L59.4 6.82ZM74.27 10.2C72.12 10.2 70.61 11.79 70.5 13.78L77.84 13.78C77.82 11.7 76.37 10.2 74.27 10.2ZM33.42 15.57C33.42 18.62 34.67 20.86 37.11 20.86C39.51 20.86 40.76 18.62 40.76 15.57C40.76 12.53 39.51 10.28 37.11 10.28C34.67 10.28 33.42 12.53 33.42 15.57ZM140.4 19.24C140.4 20.57 141.46 21.26 142.95 21.26C145.08 21.26 146.59 19.86 146.59 18.03L146.59 16.17C146.01 16.57 144.28 16.82 143.23 16.96C141.52 17.2 140.4 17.87 140.4 19.24Z" fill="#E2E3E4" fill-opacity="1.000000" fill-rule="evenodd"/>
	<path d="M9.59 24.61C14.24 24.61 17.15 21.89 17.39 17.87L12.82 17.87C12.53 19.74 11.3 20.78 9.64 20.78C7.39 20.78 5.92 18.89 5.92 15.54C5.92 12.25 7.39 10.36 9.64 10.36C11.42 10.36 12.55 11.53 12.82 13.27L17.39 13.27C17.17 9.24 14.12 6.59 9.57 6.59C4.27 6.59 1 10.26 1 15.61C1 20.92 4.21 24.61 9.59 24.61ZM25.34 1L20.49 1L20.49 24.27L25.34 24.27L25.34 1ZM37.09 24.61C42.39 24.61 45.67 20.99 45.67 15.61C45.67 10.2 42.39 6.59 37.09 6.59C31.79 6.59 28.5 10.2 28.5 15.61C28.5 20.99 31.79 24.61 37.09 24.61ZM37.11 20.86C34.67 20.86 33.42 18.62 33.42 15.57C33.42 12.53 34.67 10.28 37.11 10.28C39.51 10.28 40.76 12.53 40.76 15.57C40.76 18.62 39.51 20.86 37.11 20.86ZM64.53 6.82L59.4 6.82L55.79 19.3L55.61 19.3L51.98 6.82L46.87 6.82L52.97 24.27L58.43 24.27L64.53 6.82ZM74.38 24.61C78.7 24.61 81.61 22.51 82.29 19.27L77.82 18.97C77.32 20.3 76.07 21 74.46 21C72.04 21 70.5 19.39 70.5 16.79L70.5 16.78L82.39 16.78L82.39 15.45C82.39 9.52 78.8 6.59 74.19 6.59C69.05 6.59 65.72 10.24 65.72 15.62C65.72 21.15 69 24.61 74.38 24.61ZM70.5 13.78C70.61 11.79 72.12 10.2 74.27 10.2C76.37 10.2 77.82 11.7 77.84 13.78L70.5 13.78ZM85.55 24.27L90.39 24.27L90.39 14.39C90.39 12.25 91.96 10.77 94.1 10.77C94.77 10.77 95.69 10.89 96.14 11.03L96.14 6.74C95.71 6.64 95.11 6.57 94.62 6.57C92.67 6.57 91.07 7.7 90.43 9.86L90.25 9.86L90.25 6.82L85.55 6.82L85.55 24.27ZM105.7 24.61C110.35 24.61 113.27 21.89 113.5 17.87L108.93 17.87C108.64 19.74 107.41 20.78 105.76 20.78C103.5 20.78 102.03 18.89 102.03 15.54C102.03 12.25 103.51 10.36 105.76 10.36C107.53 10.36 108.66 11.53 108.93 13.27L113.5 13.27C113.29 9.24 110.23 6.59 105.68 6.59C100.38 6.59 97.11 10.26 97.11 15.61C97.11 20.92 100.33 24.61 105.7 24.61ZM121.45 14.17C121.46 11.92 122.83 10.61 124.81 10.61C126.78 10.61 127.94 11.87 127.93 14.02L127.93 24.27L132.77 24.27L132.77 13.15C132.78 9.07 130.37 6.59 126.73 6.59C124.08 6.59 122.31 7.84 121.52 9.89L121.31 9.89L121.31 1L116.61 1L116.61 24.27L121.45 24.27L121.45 14.17ZM141.56 24.6C144.15 24.6 145.81 23.47 146.66 21.85L146.8 21.85L146.8 24.27L151.4 24.27L151.4 12.5C151.4 8.34 147.87 6.59 143.98 6.59C139.8 6.59 137.05 8.59 136.38 11.77L140.86 12.14C141.19 10.97 142.23 10.12 143.96 10.12C145.61 10.12 146.55 10.95 146.55 12.39L146.55 12.45C146.55 13.57 145.36 13.72 142.33 14.02C138.87 14.34 135.77 15.5 135.77 19.39C135.77 22.85 138.23 24.6 141.56 24.6ZM142.95 21.26C141.46 21.26 140.4 20.57 140.4 19.24C140.4 17.87 141.52 17.2 143.23 16.96C144.28 16.82 146.01 16.57 146.59 16.17L146.59 18.03C146.59 19.86 145.08 21.26 142.95 21.26ZM164.44 6.82L161.15 6.82L161.15 2.64L156.32 2.64L156.32 6.82L153.93 6.82L153.93 10.45L156.32 10.45L156.32 19.54C156.29 22.96 158.62 24.65 162.13 24.51C163.38 24.46 164.27 24.21 164.75 24.05L164 20.45C163.75 20.5 163.25 20.61 162.79 20.61C161.83 20.61 161.15 20.25 161.15 18.9L161.15 10.45L164.44 10.45L164.44 6.82Z" stroke="#E2E3E4" stroke-opacity="1.000000" stroke-width="1.000000"/>
</svg>
