<svg width="50.000000" height="50.000000" viewBox="0 0 50 50" fill="none" xmlns="http://www.w3.org/2000/svg" xmlns:xlink="http://www.w3.org/1999/xlink">
	<desc>
			Created with Pixso.
	</desc>
	<defs>
		<clipPath id="clip20_1">
			<rect id="hamburger-menu" width="50.000000" height="50.000000" fill="white" fill-opacity="0"/>
		</clipPath>
	</defs>
	<g clip-path="url(#clip20_1)">
		<path id="path" d="M42.7 14.58L7.29 14.58C6.71 14.58 6.22 14.38 5.81 13.97C5.41 13.56 5.2 13.07 5.2 12.5C5.2 11.92 5.41 11.43 5.81 11.02C6.22 10.62 6.71 10.41 7.29 10.41L42.7 10.41C43.28 10.41 43.77 10.62 44.18 11.02C44.58 11.43 44.79 11.92 44.79 12.5C44.79 13.07 44.58 13.56 44.18 13.97C43.77 14.38 43.28 14.58 42.7 14.58Z" fill="#A6A8AD" fill-opacity="1.000000" fill-rule="nonzero"/>
		<path id="path" d="M42.7 27.08L7.29 27.08C6.71 27.08 6.22 26.88 5.81 26.47C5.41 26.06 5.2 25.57 5.2 25C5.2 24.42 5.41 23.93 5.81 23.52C6.22 23.12 6.71 22.91 7.29 22.91L42.7 22.91C43.28 22.91 43.77 23.12 44.18 23.52C44.58 23.93 44.79 24.42 44.79 25C44.79 25.57 44.58 26.06 44.18 26.47C43.77 26.88 43.28 27.08 42.7 27.08Z" fill="#A6A8AD" fill-opacity="1.000000" fill-rule="nonzero"/>
		<path id="path" d="M42.7 39.58L7.29 39.58C6.71 39.58 6.22 39.38 5.81 38.97C5.41 38.56 5.2 38.07 5.2 37.5C5.2 36.92 5.41 36.43 5.81 36.02C6.22 35.62 6.71 35.41 7.29 35.41L42.7 35.41C43.28 35.41 43.77 35.62 44.18 36.02C44.58 36.43 44.79 36.92 44.79 37.5C44.79 38.07 44.58 38.56 44.18 38.97C43.77 39.38 43.28 39.58 42.7 39.58Z" fill="#A6A8AD" fill-opacity="1.000000" fill-rule="nonzero"/>
	</g>
</svg>
