<svg width="100.000000" height="92.801758" viewBox="0 0 100 92.8018" fill="none" xmlns="http://www.w3.org/2000/svg" xmlns:xlink="http://www.w3.org/1999/xlink">
	<desc>
			Created with Pixso.
	</desc>
	<defs/>
	<path id="path" d="M73.26 28.71L73.26 9.59C73.26 4.3 68.96 0 63.67 0L9.59 0C4.3 0 0 4.3 0 9.59L0 28.71C0 33.43 3.43 37.37 7.94 38.16L3.33 46.21C2.91 46.96 3.03 47.9 3.63 48.51C4 48.89 4.5 49.1 5.01 49.1C5.32 49.1 5.63 49.02 5.92 48.86L25.55 38.3L63.67 38.3C68.96 38.3 73.26 34 73.26 28.71ZM25.06 34.44C24.74 34.44 24.43 34.52 24.14 34.67L10.02 42.28L12.85 37.33C13.19 36.73 13.19 36 12.85 35.4C12.5 34.81 11.86 34.44 11.18 34.44L9.59 34.44C6.42 34.44 3.85 31.87 3.85 28.71L3.85 9.59C3.85 6.42 6.42 3.85 9.59 3.85L63.67 3.85C66.83 3.85 69.4 6.42 69.4 9.59L69.4 28.71C69.4 31.87 66.83 34.44 63.67 34.44L25.06 34.44Z" fill="#FFFFFF" fill-opacity="1.000000" fill-rule="nonzero"/>
	<path id="path" d="M90.4 43.7L36.32 43.7C31.03 43.7 26.73 48 26.73 53.29L26.73 72.41C26.73 77.7 31.03 82 36.32 82L74.44 82L94.07 92.57C94.36 92.72 94.67 92.8 94.98 92.8C95.49 92.8 95.99 92.6 96.36 92.21C96.96 91.6 97.08 90.66 96.66 89.91L92.05 81.86C96.56 81.07 100 77.14 100 72.41L100 53.29C99.99 48 95.69 43.7 90.4 43.7ZM96.14 72.41C96.14 75.57 93.57 78.14 90.4 78.14L88.81 78.14C88.12 78.14 87.49 78.51 87.14 79.1C86.8 79.7 86.8 80.43 87.14 81.03L89.97 85.98L75.84 78.37C75.56 78.22 75.25 78.14 74.93 78.14L36.32 78.14C33.16 78.14 30.59 75.57 30.59 72.41L30.59 53.29C30.59 50.13 33.16 47.55 36.32 47.55L90.4 47.55C93.57 47.55 96.14 50.13 96.14 53.29L96.14 72.41Z" fill="#FFFFFF" fill-opacity="1.000000" fill-rule="nonzero"/>
	<path id="path" d="M28.4 23.65C27.89 23.65 27.4 23.85 27.04 24.21C26.68 24.57 26.47 25.07 26.47 25.57C26.47 26.08 26.68 26.58 27.04 26.94C27.4 27.3 27.89 27.5 28.4 27.5C28.91 27.5 29.4 27.3 29.76 26.94C30.12 26.58 30.33 26.08 30.33 25.57C30.33 25.07 30.12 24.57 29.76 24.21C29.4 23.85 28.91 23.65 28.4 23.65Z" fill="#FFFFFF" fill-opacity="1.000000" fill-rule="nonzero"/>
	<path id="path" d="M36.63 23.65C36.12 23.65 35.62 23.85 35.26 24.21C34.91 24.57 34.7 25.07 34.7 25.57C34.7 26.08 34.91 26.58 35.26 26.94C35.62 27.3 36.12 27.5 36.63 27.5C37.13 27.5 37.63 27.3 37.99 26.94C38.35 26.58 38.56 26.08 38.56 25.57C38.56 25.07 38.35 24.57 37.99 24.21C37.63 23.85 37.13 23.65 36.63 23.65Z" fill="#FFFFFF" fill-opacity="1.000000" fill-rule="nonzero"/>
	<path id="path" d="M44.85 23.65C44.35 23.65 43.85 23.85 43.49 24.21C43.13 24.57 42.93 25.07 42.93 25.57C42.93 26.08 43.13 26.58 43.49 26.94C43.85 27.3 44.35 27.5 44.85 27.5C45.36 27.5 45.86 27.3 46.22 26.94C46.58 26.58 46.78 26.08 46.78 25.57C46.78 25.07 46.58 24.57 46.22 24.21C45.86 23.85 45.36 23.65 44.85 23.65Z" fill="#FFFFFF" fill-opacity="1.000000" fill-rule="nonzero"/>
	<path id="path" d="M55.14 68.37C54.63 68.37 54.13 68.58 53.77 68.94C53.41 69.3 53.21 69.8 53.21 70.3C53.21 70.81 53.41 71.31 53.77 71.67C54.13 72.03 54.63 72.23 55.14 72.23C55.64 72.23 56.14 72.03 56.5 71.67C56.86 71.31 57.06 70.81 57.06 70.3C57.06 69.8 56.86 69.3 56.5 68.94C56.14 68.58 55.64 68.37 55.14 68.37Z" fill="#FFFFFF" fill-opacity="1.000000" fill-rule="nonzero"/>
	<path id="path" d="M63.36 68.37C62.85 68.37 62.36 68.58 62 68.94C61.64 69.3 61.43 69.8 61.43 70.3C61.43 70.81 61.64 71.31 62 71.67C62.36 72.03 62.85 72.23 63.36 72.23C63.87 72.23 64.37 72.03 64.73 71.67C65.09 71.31 65.29 70.81 65.29 70.3C65.29 69.8 65.09 69.3 64.73 68.94C64.37 68.58 63.87 68.37 63.36 68.37Z" fill="#FFFFFF" fill-opacity="1.000000" fill-rule="nonzero"/>
	<path id="path" d="M71.59 68.37C71.08 68.37 70.58 68.58 70.22 68.94C69.87 69.3 69.66 69.8 69.66 70.3C69.66 70.81 69.87 71.31 70.22 71.67C70.58 72.03 71.08 72.23 71.59 72.23C72.1 72.23 72.59 72.03 72.95 71.67C73.31 71.31 73.52 70.81 73.52 70.3C73.52 69.8 73.31 69.3 72.95 68.94C72.59 68.58 72.1 68.37 71.59 68.37Z" fill="#FFFFFF" fill-opacity="1.000000" fill-rule="nonzero"/>
</svg>
