<svg width="20.000000" height="20.000000" viewBox="0 0 20 20" fill="none" xmlns="http://www.w3.org/2000/svg" xmlns:xlink="http://www.w3.org/1999/xlink">
	<desc>
			Created with Pixso.
	</desc>
	<defs>
		<clipPath id="clip5_27">
			<rect id="support" width="20.000000" height="20.000000" fill="white" fill-opacity="0"/>
		</clipPath>
	</defs>
	<g clip-path="url(#clip5_27)">
		<path id="path" d="M9.95 5.38C10.14 6.44 9.64 7.5 8.7 8.02C8.29 8.25 7.91 8.94 7.91 9.48L7.91 10L7.08 10L7.08 9.48C7.08 8.64 7.63 7.66 8.3 7.29C8.93 6.94 9.26 6.25 9.14 5.52C9.02 4.85 8.47 4.31 7.8 4.19C7.3 4.1 6.81 4.23 6.42 4.55C6.05 4.87 5.83 5.33 5.83 5.83L5 5.83C5 5.09 5.32 4.39 5.89 3.91C6.45 3.44 7.2 3.24 7.95 3.37C8.95 3.55 9.78 4.37 9.95 5.38ZM7.5 10.83C7.04 10.83 6.66 11.2 6.66 11.66C6.66 12.12 7.04 12.5 7.5 12.5C7.95 12.5 8.33 12.12 8.33 11.66C8.33 11.2 7.95 10.83 7.5 10.83ZM16.66 7.56C16.66 7.88 16.64 8.19 16.6 8.5C18.15 9.56 19.16 11.33 19.16 13.33L19.16 19.16L13.33 19.16C11.33 19.16 9.56 18.15 8.5 16.6C8.19 16.64 7.88 16.66 7.56 16.66C8.72 18.65 10.87 20 13.33 20L20 20L20 13.33C20 10.87 18.65 8.72 16.66 7.56ZM10.47 14.38C9.55 14.78 8.55 15 7.5 15L0 15L0 7.5C0 3.36 3.36 0 7.5 0C11.63 0 15 3.36 15 7.5C15 10.26 13.49 12.68 11.25 13.98L13.03 15.7C13.2 15.87 13.46 15.87 13.62 15.71L17.01 12.39L17.59 12.99L14.21 16.3C13.97 16.54 13.65 16.66 13.33 16.66C13.01 16.66 12.69 16.54 12.44 16.3L10.47 14.38ZM7.5 14.16C11.17 14.16 14.16 11.17 14.16 7.5C14.16 3.82 11.17 0.83 7.5 0.83C3.82 0.83 0.83 3.82 0.83 7.5L0.83 14.16L7.5 14.16Z" fill="#72767C" fill-opacity="1.000000" fill-rule="nonzero"/>
	</g>
</svg>
